<?xml version="1.0" encoding="UTF-8"?>
<svg id="Layer_2" data-name="Layer 2" xmlns="http://www.w3.org/2000/svg" viewBox="0 0 100.65 98.29">
  <defs>
    <style>
      .cls-1 {
        fill: #999;
      }

      .cls-2 {
        fill: #ccc;
      }
    </style>
  </defs>
  <g id="d2-p">
    <g>
      <g>
        <path class="cls-1" d="m30.47,4.51c-6.16,2.01-16.4,6.26-21.9,15.11C3.08,28.48,1.21,39.2,1.54,49.61c.36,11.41,3.45,23.14,10.94,31.75,12.44,14.32,33.7,17.79,52.28,14.01,6.86-1.4,11.06-3.05,17.32-7.29,3.51-2.38,7.74-6.86,9.63-10.66,8.96-18.03,10.43-37.73,1.2-55.62-1.98-3.85-4.97-7.95-8.33-10.67-3.1-2.51-6.98-4.69-10.77-5.89C59.17.6,49.23.56,33.96,3.55l-3.49.97Z"/>
        <path d="m30.07,3.07c-8.26,2.7-16.36,6.96-21.62,14.08C1.8,26.14-.25,38.25.02,49.18c.27,10.63,2.79,21.68,9.13,30.39,5.77,7.94,14.24,13.34,23.57,16.17s19.48,3.16,29.15,1.66c10.21-1.59,20.13-5.64,27.1-13.53,3.69-4.17,5.88-9.22,7.74-14.42,1.97-5.51,3.26-11.26,3.74-17.09.94-11.38-1.46-23.25-7.26-33.13-2.93-5-6.85-9.17-11.83-12.16s-10.6-4.52-16.2-5.68C59.99.32,54.7-.16,49.42.05s-10.84.82-15.99,2.09c-1.13.28-2.24.62-3.36.93-1.86.51-1.07,3.41.8,2.89,8.26-2.29,17.01-3.43,25.59-2.8,5.15.38,10.2,1.49,15.14,2.97,5.23,1.56,10.21,4.09,14.06,8.03,7.56,7.74,11.29,19.41,11.91,30.02s-2.05,21.99-6.85,31.87c-4.2,8.63-13.38,14.54-22.45,16.97s-18.6,3-27.76,1.46-17.55-5.05-24.18-11.27c-7.4-6.94-11.28-16.54-12.69-26.45s-.73-21.49,3.46-31.1c1.96-4.48,4.61-8.46,8.36-11.63,3.18-2.69,6.92-4.76,10.76-6.37,1.52-.64,3.08-1.2,4.65-1.71,1.83-.6,1.04-3.5-.8-2.89Z"/>
      </g>
      <g>
        <path class="cls-2" d="m69.03,47.45c-5.54.02-10.88-3.76-12.59-8.9-.62-1.88-.79-3.87-.75-5.84.06-2.42.5-4.98,2.14-6.78,1.32-1.45,3.24-2.23,5.16-2.77,2.05-.58,5.45-.75,7.53-.31,2.24.47,4.6,1.43,6.31,2.5,1.57.98,4.39,3.05,5.55,4.69.85,1.2,2.05,3.79,2.49,5.18,1.05,3.37-2.91,6.95-6.18,9.41-1.01.76-2.16,1.3-3.38,1.62-1.48.39-3.71.89-6.29,1.22"/>
        <path d="m69.03,46.32c-4.85-.05-9.68-3.12-11.39-7.74-.97-2.64-1.14-5.89-.53-8.64.66-2.94,2.62-4.57,5.42-5.48,4.93-1.6,10.19-.56,14.44,2.3,1.81,1.22,3.76,2.63,4.89,4.54.98,1.65,2.51,4.1,1.89,6.08-.81,2.6-3.51,4.73-5.63,6.26-2.54,1.84-6.06,2.28-9.1,2.68-1.41.19-1.43,2.44,0,2.25,3.14-.42,6.79-.81,9.55-2.51,2.51-1.55,5.14-3.86,6.62-6.43s.89-4.79-.28-7.32-2.83-4.53-5.15-6.3c-4.89-3.73-10.99-5.6-17.06-3.94-2.95.81-5.74,2.31-7.06,5.2s-1.34,6.68-.74,9.82c1.26,6.64,7.45,11.42,14.12,11.49,1.45.02,1.45-2.23,0-2.25h0Z"/>
      </g>
      <g>
        <path class="cls-2" d="m33.22,85.45c-.86-.57-1.58-1.35-1.84-2.27s.03-1.99.86-2.59c.61-.43,1.42-.58,2.2-.57,2.84.02,5.51,2.01,6,4.49.07.34.09.69-.06,1.01-.16.33-.5.56-.85.73-1.25.62-2.82.71-4.14.23l-2.17-1.03Z"/>
        <path d="m33.79,84.48c-.59-.4-1.14-.96-1.32-1.6-.07-.25-.07-.47-.01-.7.06-.24.18-.46.37-.63.5-.43,1.35-.45,2.03-.4.61.04,1.41.27,1.97.57,1.24.64,2.18,1.63,2.5,2.91.03.1.11.37.05.46,0,0-.03-.03-.02-.04-.21.26-.8.4-1.1.48-.38.1-.75.14-1.14.13-.45,0-.84-.16-1.28-.21.09.01.17.08.03.02-.08-.04-.16-.08-.25-.12l-.75-.35-1.08-.52c-.55-.26-1.21-.15-1.54.4-.29.49-.15,1.28.4,1.54.97.46,1.97,1.07,3.02,1.32,2.11.48,6.26-.12,5.93-3.08-.24-2.11-1.79-3.92-3.64-4.87s-4.59-1.42-6.39-.09c-1.11.82-1.58,2.19-1.33,3.54s1.3,2.43,2.41,3.19c.5.34,1.25.09,1.54-.4.33-.56.1-1.19-.4-1.54Z"/>
      </g>
      <g>
        <path class="cls-2" d="m76.02,72.81c-.61-.26-1.16-.65-1.57-1.17-1.17-1.47-1.91-3.3-1.86-5.17.06-2.24,1.37-4.48,3.43-5.34,1.62-.68,3.54-.46,5.07.4s2.68,2.31,3.36,3.93c.76,1.8.92,4-.21,5.59-1.15,1.61-3.29,2.16-5.26,2.25-.83.04-1.67,0-2.45-.27l-.5-.21Z"/>
        <path d="m76.59,71.84c-2.05-.91-3.14-3.77-2.84-5.9.28-2,1.75-3.84,3.83-4.07,2.37-.25,4.4,1.32,5.49,3.3.97,1.77,1.43,4.38-.32,5.83-1.64,1.37-4.54,1.51-6.43.72-.56-.23-1.24.25-1.38.79-.18.65.22,1.15.79,1.38,1.26.53,2.59.61,3.95.47s2.85-.48,4.03-1.28c2.74-1.88,2.95-5.35,1.72-8.2s-3.84-5.1-7.04-5.28-5.79,2.03-6.64,4.99c-.48,1.67-.33,3.49.3,5.09s1.71,3.34,3.41,4.1c.55.25,1.21.16,1.54-.4.28-.48.15-1.29-.4-1.54Z"/>
      </g>
      <g>
        <path class="cls-2" d="m17.6,51.94c-.67-.28-1.27-.71-1.72-1.28-1.14-1.46-1.85-3.26-1.8-5.1.06-2.24,1.37-4.48,3.43-5.34,1.62-.68,3.54-.46,5.07.4s2.68,2.31,3.36,3.93c.76,1.8.92,4-.21,5.59-1.15,1.61-3.29,2.16-5.26,2.25-.83.04-1.67,0-2.45-.27l-.41-.17Z"/>
        <path d="m18.17,50.96c-4.03-1.78-4.04-9.48.9-10,2.33-.25,4.35,1.27,5.44,3.22.97,1.73,1.49,4.3-.15,5.8s-4.58,1.65-6.47.87c-.56-.23-1.24.25-1.38.79-.18.65.22,1.15.79,1.38,1.28.54,2.67.57,4.04.42s2.83-.52,3.99-1.36c2.7-1.95,2.77-5.46,1.5-8.27s-3.96-5.05-7.16-5.11-5.6,2.11-6.44,4.99c-.94,3.25.56,7.79,3.79,9.22.56.25,1.21.16,1.54-.4.28-.48.15-1.29-.4-1.54Z"/>
      </g>
      <g>
        <path class="cls-2" d="m38.18,22.6c-.66-.03-1.31-.2-1.88-.53-1.4-.81-2.47-1.99-2.82-3.41-.43-1.73.35-3.8,2.15-5.02,1.41-.96,3.31-1.31,4.97-1.07s3.08,1.05,4.08,2.1c1.12,1.17,1.75,2.82,1,4.34-.76,1.54-2.7,2.55-4.58,3.15-.79.25-1.61.46-2.42.45l-.51-.02Z"/>
        <path d="m38.18,21.48c-1.71-.11-3.53-1.77-3.67-3.51-.15-1.87,1.3-3.43,2.98-3.99,1.92-.65,4.06-.37,5.7.86,1.46,1.09,2.4,3.01.91,4.49-.8.79-1.87,1.28-2.92,1.65s-1.94.56-2.99.51c-1.45-.07-1.44,2.18,0,2.25,1.3.06,2.55-.21,3.77-.66,1.3-.47,2.58-1.09,3.6-2.04s1.67-2.27,1.57-3.67-.89-2.8-1.96-3.78c-2.12-1.95-5.14-2.65-7.91-1.88s-4.91,2.99-5.01,5.88c-.11,3.19,2.87,5.95,5.93,6.16,1.45.1,1.44-2.15,0-2.25Z"/>
      </g>
      <g>
        <path class="cls-2" d="m43.48,62.6c-.29-.38-.49-.83-.58-1.3-.27-1.42-.08-2.85.69-3.93.91-1.27,2.72-1.95,4.53-1.47,1.42.38,2.7,1.42,3.45,2.65s1.01,2.62.86,3.89c-.16,1.41-.91,2.77-2.33,3.15-1.44.39-3.18-.31-4.62-1.2-.6-.37-1.19-.79-1.64-1.33l-.36-.47Z"/>
        <path d="m44.45,62.03c-.94-1.3-.68-3.52.53-4.51s2.96-.75,4.24.13c1.45,1,2.22,2.74,2.11,4.48-.09,1.44-.94,2.64-2.55,2.42-.98-.13-1.91-.62-2.74-1.13-.47-.29-.83-.62-1.25-.97-.19-.16.06.1,0,.02-.05-.05-.09-.11-.13-.17l-.2-.27c-.37-.48-.97-.74-1.54-.4-.47.28-.77,1.05-.4,1.54.61.8,1.27,1.46,2.12,2.02,1.07.7,2.28,1.31,3.55,1.54s2.62.05,3.69-.81c.86-.69,1.4-1.76,1.6-2.83.47-2.54-.46-5.22-2.46-6.87s-4.72-2.18-6.94-.77c-1.18.74-1.99,1.95-2.26,3.32-.28,1.46-.19,3.18.71,4.41.36.49.98.73,1.54.4.49-.28.76-1.04.4-1.54Z"/>
      </g>
    </g>
  </g>
</svg>