<?xml version="1.0" encoding="UTF-8"?>
<svg id="Layer_2" data-name="Layer 2" xmlns="http://www.w3.org/2000/svg" viewBox="0 0 100 100">
  <defs>
    <style>
      .cls-1 {
        fill: #353535;
      }

      .cls-2 {
        fill: #161616;
      }

      .cls-3 {
        fill: #efefef;
      }
    </style>
  </defs>
  <g id="Layer_1-2" data-name="Layer 1">
    <g>
      <g>
        <rect class="cls-3" x="2.5" y="2.5" width="95" height="95" rx="13.5" ry="13.5"/>
        <path class="cls-2" d="m84,5c6.07,0,11,4.93,11,11v68c0,6.07-4.93,11-11,11H16c-6.07,0-11-4.93-11-11V16c0-6.07,4.93-11,11-11h68m0-5H16C7.16,0,0,7.16,0,16v68c0,8.84,7.16,16,16,16h68c8.84,0,16-7.16,16-16V16c0-8.84-7.16-16-16-16h0Z"/>
      </g>
      <g>
        <path class="cls-1" d="m20.07,17h0c1.33,0,2.41,1.08,2.41,2.41v53.15c0,1.33,1.08,2.41,2.41,2.41h53.57c1.94,0,3.52,1.58,3.52,3.52h0c0,1.94-1.58,3.52-3.52,3.52H20.07c-1.33,0-2.41-1.08-2.41-2.41V19.41c0-1.33,1.08-2.41,2.41-2.41Z"/>
        <path class="cls-1" d="m70.69,48.64c-.39-7.65-.86-16.86-.78-23.7h-.24c-1.8,6.43-4,13.27-6.66,20.85l-8.48,24.22c-.51,1.44-1.87,2.41-3.4,2.41h0c-1.56,0-2.94-1-3.42-2.48l-7.72-23.66c-2.51-7.74-4.62-14.82-6.11-21.34h-.16c-.16,6.84-.55,16.04-1.02,24.27l-1.23,20.5c-.1,1.71-1.52,3.04-3.23,3.04h0c-1.87,0-3.35-1.58-3.22-3.45l.74-49.32c.08-1.2,1.07-2.13,2.27-2.13h6.33c1.67,0,3.16,1.07,3.69,2.65l8.11,23.9c2.19,6.76,4,12.79,5.32,18.49h.24c1.33-5.54,3.21-11.57,5.56-18.49l8.48-23.95c.55-1.56,2.03-2.6,3.68-2.6h6.35c1.2,0,2.2.94,2.27,2.14l.39,49.33c.11,1.86-1.36,3.42-3.23,3.42h-.17c-1.72,0-3.13-1.34-3.23-3.05l-1.16-21.06Z"/>
      </g>
    </g>
  </g>
</svg>